<?xml version="1.0" encoding="UTF-8" standalone="no"?>
<!-- Created with Inkscape (http://www.inkscape.org/) -->

<svg
   version="1.1"
   id="svg2"
   width="265.28"
   height="50.080002"
   viewBox="0 0 265.28 50.080002"
   sodipodi:docname="mchorizontalcmykeps.eps"
   xmlns:inkscape="http://www.inkscape.org/namespaces/inkscape"
   xmlns:sodipodi="http://sodipodi.sourceforge.net/DTD/sodipodi-0.dtd"
   xmlns="http://www.w3.org/2000/svg"
   xmlns:svg="http://www.w3.org/2000/svg">
  <defs
     id="defs6" />
  <sodipodi:namedview
     id="namedview4"
     pagecolor="#ffffff"
     bordercolor="#000000"
     borderopacity="0.25"
     inkscape:showpageshadow="2"
     inkscape:pageopacity="0.0"
     inkscape:pagecheckerboard="0"
     inkscape:deskcolor="#d1d1d1" />
  <g
     id="g8"
     inkscape:groupmode="layer"
     inkscape:label="ink_ext_XXXXXX"
     transform="matrix(1.3333333,0,0,-1.3333333,0,50.08)">
    <g
       id="g10"
       transform="scale(0.1)">
      <path
         d="M 298.848,375.566 H 0 V 266.875 c 0,-75.02 5.16406,-93.184 8.57813,-105.203 l 0.39062,-1.359 0.46484,-1.641 0.25782,-0.918 0.40239,-0.684 C 33.4766,92.3047 69.6289,53.6836 95.8789,32.6758 117.543,15.3633 136.434,6.59375 145.77,2.91016 L 150.398,1.07422 153.145,0 l 2.75,1.07422 4.656,1.82812 c 9.328,3.67969 28.195,12.42966 49.883,29.76566 26.25,20.9922 62.382,59.5781 85.757,124.305 l 0.106,0.175 0.516,1.309 0.527,1.746 0.41,1.477 c 3.422,11.992 8.598,30.156 8.598,105.195 v 88.535 12.656 7.5 h -7.5"
         style="fill:#ffffff;fill-opacity:1;fill-rule:nonzero;stroke:none"
         id="path12" />
      <path
         d="m 28.418,165.715 0.2734,-0.766 C 50.4492,103.965 84.0898,67.9102 108.484,48.4297 c 20.09,-16.0742 37.422,-23.9063 44.668,-26.7695 7.278,2.8632 24.602,10.6953 44.7,26.7695 24.394,19.4805 58.035,55.5353 79.793,116.5193 l 0.277,0.766 0.047,0.086 c 3.125,11.094 8.211,25.781 8.211,101.074 V 355.41 H 20.1563 v -88.535 c 0,-75.293 5.0859,-89.98 8.2109,-101.074 l 0.0508,-0.086"
         style="fill:#ffffff;fill-opacity:1;fill-rule:nonzero;stroke:none"
         id="path14" />
      <path
         d="m 20.1563,356.602 h -1.2032 v -89.727 c 0,-5.176 0.0196,-10.242 0.0782,-15.508 l 0.0117,-1.191 h 1.1914 121.7966 1.199 v 1.203 104.031 1.192 H 142.031 20.1563"
         style="fill:#ffffff;fill-opacity:1;fill-rule:nonzero;stroke:none"
         id="path16" />
      <path
         d="M 286.18,356.602 H 163.113 V 250.176 h 124.172 l 0.012,1.191 c 0.066,5.215 0.086,10.293 0.086,15.508 v 88.535 1.192 h -1.203"
         style="fill:#fddd04;fill-opacity:1;fill-rule:nonzero;stroke:none"
         id="path18" />
      <path
         d="m 20.7031,230.273 h -1.25 l 0.0508,-1.23 c 1.3164,-41.113 4.7813,-53.309 7.3203,-62.227 l 0.3828,-1.336 0.0469,-0.156 0.0703,-0.129 0.2227,-0.644 C 49.4023,103.293 83.2148,67.0781 107.723,47.4727 118.621,38.7695 129.98,31.418 141.484,25.625 l 1.746,-0.8672 v 1.9414 202.3828 1.191 H 142.031 20.7031"
         style="fill:#fddd04;fill-opacity:1;fill-rule:nonzero;stroke:none"
         id="path20" />
      <path
         d="m 164.324,230.273 h -1.211 V 24.7578 l 1.758,0.8672 c 11.496,5.8008 22.852,13.1563 33.742,21.8477 24.512,19.6054 58.301,55.8203 80.164,117.0703 l 0.227,0.652 0.019,0.039 0.098,0.246 0.391,1.336 c 2.539,8.918 6.004,21.114 7.324,62.227 l 0.039,1.23 h -1.242 -121.309"
         style="fill:#ffffff;fill-opacity:1;fill-rule:nonzero;stroke:none"
         id="path22" />
      <path
         d="M 288.555,251.379 H 164.324 V 357.402 H 142.031 V 251.379 H 17.793 V 229.082 H 142.031 V 21.2617 h 22.293 V 229.082 h 124.231 v 22.297"
         style="fill:#0b335e;fill-opacity:1;fill-rule:nonzero;stroke:none"
         id="path24" />
      <path
         d="m 114.297,303.184 c 0,0 -2.918,4.582 -9.942,4.238 0,0 2.754,3.555 0.458,6.25 -2.477,2.832 -4.723,1.855 -4.723,1.855 0,0 1.316,-6.015 -2.4533,-7.109 -2.4023,-0.676 -9.25,-0.75 -13.9961,-0.691 -0.0547,4.714 0.0117,11.589 0.7149,13.984 1.0937,3.758 7.1484,2.449 7.1484,2.449 0,0 0.9375,2.246 -1.9062,4.688 -2.6641,2.312 -6.2305,-0.43 -6.2305,-0.43 0.332,7.012 -4.2656,9.941 -4.2656,9.941 0,0 -4.5703,-2.929 -4.2657,-9.941 0,0 -3.539,2.742 -6.2226,0.43 -2.8438,-2.442 -1.8945,-4.688 -1.8945,-4.688 0,0 6.0625,1.309 7.1289,-2.449 0.7226,-2.395 0.7617,-9.27 0.7226,-13.984 -4.7578,-0.09 -11.6211,0.015 -14.0039,0.691 -3.7812,1.094 -2.4141,7.109 -2.4141,7.109 0,0 -2.2734,0.977 -4.7343,-1.855 -2.2969,-2.695 0.4609,-6.25 0.4609,-6.25 -7.0351,0.344 -9.9726,-4.238 -9.9726,-4.238 0,0 2.9375,-4.571 9.9726,-4.278 0,0 -2.7578,-3.554 -0.4609,-6.25 2.4609,-2.832 4.7343,-1.894 4.7343,-1.894 0,0 -1.3671,6.093 2.4141,7.168 2.3828,0.683 9.2461,0.73 14.0039,0.683 0.0391,-4.726 0,-11.601 -0.7226,-13.965 -1.0664,-3.796 -7.1289,-2.429 -7.1289,-2.429 0,0 -0.9493,-2.278 1.8945,-4.739 2.6836,-2.285 6.2226,0.411 6.2226,0.411 -0.3046,-6.993 4.2657,-9.903 4.2657,-9.903 0,0 4.5976,2.91 4.2656,9.903 0,0 3.5664,-2.696 6.2305,-0.411 2.8437,2.461 1.9062,4.739 1.9062,4.739 0,0 -6.0547,-1.367 -7.1484,2.429 -0.7032,2.364 -0.7696,9.239 -0.7149,13.965 4.7461,0.047 11.5938,0 13.9961,-0.683 3.7693,-1.075 2.4533,-7.168 2.4533,-7.168 0,0 2.246,-0.938 4.723,1.894 2.296,2.696 -0.458,6.25 -0.458,6.25 7.024,-0.293 9.942,4.278 9.942,4.278"
         style="fill:#0b335e;fill-opacity:1;fill-rule:nonzero;stroke:none"
         id="path26" />
      <path
         d="m 286.18,266.875 c 0,-75.293 -5.086,-89.98 -8.211,-101.074 l -0.047,-0.086 -0.277,-0.766 C 255.887,103.965 222.246,67.9102 197.852,48.4297 177.754,32.3555 160.43,24.5234 153.152,21.6602 145.906,24.5234 128.574,32.3555 108.484,48.4297 84.0898,67.9102 50.4492,103.965 28.6914,164.949 l -0.2734,0.766 -0.0508,0.086 c -3.125,11.094 -8.2109,25.781 -8.2109,101.074 V 355.41 H 286.18 Z m 0,101.191 H 7.5 V 266.875 c 0,-74.023 5,-91.562 8.3008,-103.176 l 0.3789,-1.328 0.4687,-1.656 0.2657,-0.449 C 39.707,96.7305 74.9688,59.0156 100.566,38.5273 121.492,21.8086 139.598,13.4102 148.523,9.88281 l 4.629,-1.82422 4.661,1.82422 c 8.914,3.51559 27.011,11.91409 47.941,28.64449 25.613,20.4883 60.875,58.2032 83.648,121.7387 l 0.227,0.359 0.527,1.746 0.371,1.328 c 3.313,11.614 8.321,29.153 8.321,103.176 v 88.535 12.656 H 286.18"
         style="fill:#0b335e;fill-opacity:1;fill-rule:nonzero;stroke:none"
         id="path28" />
      <path
         d="m 41.5508,198.223 c 2.7734,1.113 4.9609,1.992 9.8281,1.992 4.8594,0 7.0469,-0.879 9.8203,-1.992 3.3047,-1.309 7.4024,-2.957 14.9024,-2.957 7.5,0 11.6132,1.648 14.914,2.957 2.7735,1.113 4.961,1.992 9.8244,1.992 4.863,0 7.051,-0.879 9.824,-1.992 3.301,-1.309 7.402,-2.957 14.902,-2.957 7.508,0 11.61,1.648 14.911,2.957 0.949,0.382 1.82,0.73 2.753,1.023 v 14.074 c -3.359,-0.593 -5.761,-1.55 -7.832,-2.382 -2.769,-1.114 -4.96,-1.985 -9.832,-1.985 -4.863,0 -7.05,0.871 -9.824,1.985 -3.301,1.32 -7.402,2.968 -14.902,2.968 -7.5002,0 -11.6134,-1.648 -14.9142,-2.968 -2.7617,-1.114 -4.9492,-1.985 -9.8242,-1.985 -4.8633,0 -7.0508,0.871 -9.8243,1.985 -3.3007,1.32 -7.3984,2.968 -14.8984,2.968 -7.5,0 -11.6133,-1.648 -14.9141,-2.968 -2.7656,-1.114 -4.9531,-1.985 -9.8164,-1.985 -2.7421,0 -4.6367,0.277 -6.2578,0.715 0.3399,-5.359 0.7227,-10.02 1.1328,-14.109 1.5118,-0.188 3.2032,-0.293 5.125,-0.293 7.5,0 11.6055,1.648 14.9024,2.957"
         style="fill:#0b335e;fill-opacity:1;fill-rule:nonzero;stroke:none"
         id="path30" />
      <path
         d="m 126.086,172.941 c -4.68,0 -6.684,0.801 -9.457,1.903 -3.223,1.289 -7.227,2.89 -14.551,2.89 -7.3124,0 -11.3163,-1.601 -14.5389,-2.89 -2.7735,-1.102 -4.7774,-1.903 -9.4532,-1.903 -4.6875,0 -6.6914,0.801 -9.4648,1.903 -3.2227,1.289 -7.2266,2.89 -14.5391,2.89 -7.3242,0 -11.3281,-1.601 -14.5429,-2.89 -2.7735,-1.102 -4.7735,-1.903 -9.461,-1.903 -2.1093,0 -3.6718,0.157 -5.0117,0.438 0.6055,-2.52 1.2031,-4.617 1.7578,-6.563 l 0.3828,-1.336 0.0469,-0.156 0.0703,-0.129 0.2227,-0.644 c 0.6367,-1.785 1.2812,-3.555 1.9453,-5.293 0.1953,-0.012 0.3906,-0.012 0.5859,-0.012 7.3242,0 11.3282,1.606 14.5391,2.895 2.7734,1.101 4.7773,1.902 9.4648,1.902 4.6758,0 6.6797,-0.801 9.4532,-1.902 3.2226,-1.289 7.2265,-2.895 14.5507,-2.895 7.3125,0 11.3164,1.606 14.543,2.895 2.7695,1.101 4.7734,1.902 9.4491,1.902 4.688,0 6.692,-0.801 9.465,-1.902 3.223,-1.289 7.227,-2.895 14.543,-2.895 7.32,0 11.324,1.606 14.539,2.895 0.918,0.359 1.738,0.691 2.605,0.964 v 14.075 c -3.3,-0.586 -5.652,-1.524 -7.683,-2.336 -2.774,-1.102 -4.777,-1.903 -9.461,-1.903"
         style="fill:#0b335e;fill-opacity:1;fill-rule:nonzero;stroke:none"
         id="path32" />
      <path
         d="m 127.852,137.09 c -4.055,0 -5.793,0.703 -8.204,1.66 -2.937,1.184 -6.601,2.648 -13.293,2.648 -6.687,0 -10.3511,-1.464 -13.2886,-2.648 -2.4023,-0.957 -4.1406,-1.66 -8.2031,-1.66 -4.0547,0 -5.793,0.703 -8.2031,1.66 -2.9414,1.184 -6.6016,2.648 -13.293,2.648 -6.6875,0 -10.3399,-1.464 -13.2774,-2.648 -2.414,-0.957 -4.1523,-1.66 -8.2148,-1.66 -1.2227,0 -2.2266,0.07 -3.1172,0.187 2.2266,-4.757 4.5235,-9.316 6.875,-13.703 4.4063,0.418 7.1992,1.535 9.5313,2.473 2.414,0.965 4.1523,1.656 8.2031,1.656 4.0625,0 5.8047,-0.691 8.2031,-1.656 2.9414,-1.176 6.6016,-2.637 13.293,-2.637 6.6875,0 10.3515,1.461 13.289,2.637 2.4137,0.965 4.1527,1.656 8.2027,1.656 4.055,0 5.801,-0.691 8.215,-1.656 2.93,-1.176 6.59,-2.637 13.282,-2.637 6.699,0 10.351,1.461 13.289,2.637 0.734,0.293 1.398,0.555 2.089,0.789 v 14.074 c -3.093,-0.527 -5.281,-1.398 -7.167,-2.16 -2.411,-0.957 -4.149,-1.66 -8.211,-1.66"
         style="fill:#0b335e;fill-opacity:1;fill-rule:nonzero;stroke:none"
         id="path34" />
      <path
         d="m 130.715,101.398 c -3.078,0 -4.336,0.497 -6.242,1.27 -2.508,0.992 -5.625,2.242 -11.328,2.242 -5.715,0 -8.829,-1.25 -11.329,-2.242 -1.9058,-0.773 -3.1637,-1.27 -6.2418,-1.27 -3.0742,0 -4.3359,0.497 -6.2383,1.27 -2.5117,0.992 -5.6171,2.242 -11.3281,2.242 -5.7109,0 -8.8281,-1.25 -11.3281,-2.242 -1.9063,-0.773 -3.1641,-1.27 -6.2422,-1.27 -0.5859,0 -1.1016,0.02 -1.5703,0.047 3.0078,-4.5114 6.043,-8.7887 9.1016,-12.8239 1.496,0.4141 2.7031,0.8906 3.7968,1.3281 1.9063,0.7656 3.1641,1.2735 6.2422,1.2735 3.0781,0 4.336,-0.5079 6.2383,-1.2735 2.5,-0.9961 5.6172,-2.2461 11.3281,-2.2461 5.7148,0 8.8208,1.25 11.3208,2.2461 1.914,0.7656 3.171,1.2735 6.25,1.2735 3.066,0 4.335,-0.5079 6.238,-1.2735 2.5,-0.9961 5.617,-2.2461 11.332,-2.2461 5.711,0 8.816,1.25 11.316,2.2461 0.43,0.168 0.821,0.3242 1.199,0.4727 v 14.1011 c -2.722,-0.449 -4.636,-1.203 -6.277,-1.855 -1.906,-0.773 -3.164,-1.27 -6.238,-1.27"
         style="fill:#0b335e;fill-opacity:1;fill-rule:nonzero;stroke:none"
         id="path36" />
      <path
         d="m 129.988,65.1367 c -3.504,0 -4.929,0.5664 -7.09,1.4375 -2.695,1.0742 -6.043,2.4102 -12.175,2.4102 -6.133,0 -9.485,-1.336 -12.1683,-2.4102 -2.168,-0.8711 -3.5938,-1.4375 -7.0899,-1.4375 -1.4765,0 -2.5781,0.0977 -3.5273,0.2852 4.5508,-4.6602 8.9961,-8.8008 13.2425,-12.4922 0.898,0.3125 1.711,0.6367 2.453,0.9297 2.168,0.8672 3.594,1.4336 7.09,1.4336 3.496,0 4.929,-0.5664 7.09,-1.4336 2.695,-1.0742 6.042,-2.4141 12.175,-2.4141 6.133,0 9.485,1.3399 12.168,2.4141 0.383,0.1562 0.735,0.2929 1.074,0.4179 v 14.1915 c -2.617,-0.4883 -4.511,-1.2422 -6.152,-1.8946 -2.168,-0.8711 -3.594,-1.4375 -7.09,-1.4375"
         style="fill:#0b335e;fill-opacity:1;fill-rule:nonzero;stroke:none"
         id="path38" />
      <path
         d="m 195.508,52.2969 c 1.191,2.957 2.664,6.6484 2.664,13.4062 0,6.7461 -1.473,10.4414 -2.664,13.4102 -0.977,2.4414 -1.68,4.207 -1.68,8.3203 0,4.1094 0.703,5.8789 1.68,8.3203 1.191,2.9688 2.664,6.6561 2.664,13.4061 0,6.758 -1.473,10.449 -2.664,13.41 -0.977,2.442 -1.68,4.207 -1.68,8.328 0,4.114 0.703,5.879 1.68,8.321 1.191,2.969 2.664,6.648 2.664,13.41 0,6.746 -1.473,10.437 -2.664,13.406 -0.977,2.442 -1.68,4.199 -1.68,8.32 0,4.114 0.703,5.879 1.68,8.321 1.191,2.961 2.664,6.66 2.664,13.398 0,6.758 -1.473,10.449 -2.664,13.418 -0.977,2.442 -1.68,4.199 -1.68,8.321 0,4.113 0.703,5.878 1.68,8.32 0.488,1.211 1.015,2.539 1.472,4.14 h -14.55 c -1.102,-2.812 -2.293,-6.406 -2.293,-12.46 0,-6.758 1.472,-10.45 2.664,-13.407 0.976,-2.453 1.679,-4.211 1.679,-8.332 0,-4.101 -0.703,-5.879 -1.679,-8.32 -1.192,-2.957 -2.664,-6.649 -2.664,-13.399 0,-6.757 1.472,-10.437 2.664,-13.406 0.976,-2.441 1.679,-4.211 1.679,-8.32 0,-4.121 -0.703,-5.883 -1.679,-8.332 -1.192,-2.957 -2.664,-6.649 -2.664,-13.399 0,-6.757 1.472,-10.449 2.664,-13.406 0.976,-2.453 1.679,-4.211 1.679,-8.332 0,-4.109 -0.703,-5.879 -1.679,-8.32 -1.192,-2.9689 -2.664,-6.6603 -2.664,-13.4064 0,-6.75 1.472,-10.4414 2.664,-13.4102 0.976,-2.4414 1.679,-4.207 1.679,-8.3203 0,-4.1211 -0.703,-5.8867 -1.679,-8.332 -1.192,-2.9648 -2.664,-6.6563 -2.664,-13.4063 0,-3.8281 0.476,-6.6679 1.101,-8.9531 4.25,2.7149 8.45,5.6446 12.59,8.7578 0,0.0703 0,0.1289 0,0.1953 0,4.1211 0.703,5.879 1.68,8.3321"
         style="fill:#0b335e;fill-opacity:1;fill-rule:nonzero;stroke:none"
         id="path40" />
      <path
         d="m 228.281,87.4336 c 0,4.1094 0.703,5.8789 1.68,8.3203 1.191,2.9688 2.668,6.6561 2.668,13.4061 0,6.758 -1.477,10.449 -2.668,13.41 -0.977,2.442 -1.68,4.207 -1.68,8.328 0,4.114 0.703,5.879 1.68,8.321 1.191,2.969 2.668,6.648 2.668,13.41 0,6.746 -1.477,10.437 -2.668,13.406 -0.977,2.442 -1.68,4.199 -1.68,8.32 0,4.114 0.703,5.879 1.68,8.321 1.191,2.961 2.668,6.66 2.668,13.398 0,6.758 -1.477,10.449 -2.668,13.418 -0.977,2.442 -1.68,4.199 -1.68,8.321 0,4.113 0.703,5.878 1.68,8.32 0.488,1.211 1.016,2.539 1.473,4.14 h -14.551 c -1.102,-2.812 -2.293,-6.406 -2.293,-12.46 0,-6.758 1.484,-10.45 2.664,-13.407 0.976,-2.453 1.68,-4.211 1.68,-8.332 0,-4.101 -0.704,-5.879 -1.68,-8.32 -1.18,-2.957 -2.664,-6.649 -2.664,-13.399 0,-6.757 1.484,-10.437 2.664,-13.406 0.976,-2.441 1.68,-4.211 1.68,-8.32 0,-4.121 -0.704,-5.883 -1.68,-8.332 -1.18,-2.957 -2.664,-6.649 -2.664,-13.399 0,-6.757 1.484,-10.449 2.664,-13.406 0.976,-2.453 1.68,-4.211 1.68,-8.332 0,-4.109 -0.704,-5.879 -1.68,-8.32 -1.18,-2.9689 -2.664,-6.6603 -2.664,-13.4064 0,-6.75 1.484,-10.4414 2.664,-13.4102 0.961,-2.3828 1.652,-4.1289 1.68,-8.0546 3.711,3.8281 7.492,7.9687 11.3,12.4804 -0.097,0.2227 -0.187,0.4375 -0.273,0.6641 -0.977,2.4414 -1.68,4.207 -1.68,8.3203"
         style="fill:#0b335e;fill-opacity:1;fill-rule:nonzero;stroke:none"
         id="path42" />
      <path
         d="m 264.422,139.219 c 1.183,2.969 2.656,6.648 2.656,13.41 0,6.746 -1.473,10.437 -2.656,13.406 -0.977,2.442 -1.688,4.199 -1.688,8.32 0,4.114 0.711,5.879 1.688,8.321 1.183,2.961 2.656,6.66 2.656,13.398 0,6.758 -1.473,10.449 -2.656,13.418 -0.977,2.442 -1.688,4.199 -1.688,8.321 0,4.113 0.711,5.878 1.688,8.32 0.48,1.211 1.008,2.539 1.476,4.14 H 251.34 c -1.106,-2.812 -2.289,-6.406 -2.289,-12.46 0,-6.758 1.476,-10.45 2.66,-13.407 0.973,-2.453 1.687,-4.211 1.687,-8.332 0,-4.101 -0.703,-5.879 -1.687,-8.32 -1.184,-2.957 -2.66,-6.649 -2.66,-13.399 0,-6.757 1.476,-10.437 2.66,-13.406 0.984,-2.441 1.687,-4.211 1.687,-8.32 0,-4.121 -0.714,-5.883 -1.687,-8.332 -1.184,-2.957 -2.66,-6.649 -2.66,-13.399 0,-6.757 1.476,-10.449 2.66,-13.406 0.848,-2.109 1.48,-3.722 1.648,-6.769 3.262,5.371 6.454,11.054 9.551,17.07 -0.109,0.879 -0.176,1.887 -0.176,3.105 0,4.114 0.711,5.879 1.688,8.321"
         style="fill:#0b335e;fill-opacity:1;fill-rule:nonzero;stroke:none"
         id="path44" />
      <path
         d="m 255.555,335.039 c -7.352,0 -14.707,4.395 -22.051,4.395 -2.684,0 -5.371,-0.586 -8.074,-2.176 -2.696,1.59 -5.383,2.176 -8.067,2.176 -7.343,0 -14.699,-4.395 -22.05,-4.395 -2.481,0 -4.961,0.535 -7.434,1.856 v -65.547 c 5.043,0.273 8.906,1.679 12.648,3.047 3.965,1.445 7.715,2.812 12.508,2.812 3.848,0 7.91,-0.898 12.395,-2.754 4.492,1.856 8.554,2.754 12.402,2.754 4.785,0 8.535,-1.367 12.5,-2.812 3.738,-1.368 7.617,-2.774 12.645,-3.047 v 65.547 c -2.469,-1.321 -4.942,-1.856 -7.422,-1.856"
         style="fill:#ffffff;fill-opacity:1;fill-rule:nonzero;stroke:none"
         id="path46" />
      <path
         d="m 200.449,310.625 1.543,-1.57 h -5.898 l 1.57,1.57 v 15.156 h -3.086 l -2.058,-2.097 v 3.582 h 13.046 v -3.582 l -2.07,2.097 h -3.047 v -15.156"
         style="fill:#0b335e;fill-opacity:1;fill-rule:nonzero;stroke:none"
         id="path48" />
      <path
         d="m 209.473,318.156 c 0,-3.605 0.925,-8 4.414,-8 3.457,0 4.383,4.395 4.383,8 0,3.614 -0.926,7.996 -4.383,7.996 -3.489,0 -4.414,-4.382 -4.414,-7.996 z m -3.426,0 c 0,4.754 3.023,9.5 7.84,9.5 4.785,0 7.801,-4.746 7.801,-9.5 0,-4.758 -3.016,-9.504 -7.801,-9.504 -4.817,0 -7.84,4.746 -7.84,9.504"
         style="fill:#0b335e;fill-opacity:1;fill-rule:nonzero;stroke:none"
         id="path50" />
      <path
         d="m 233.32,312.637 v -3.582 h -10.761 l 1.57,1.57 v 15.059 l -1.57,1.582 h 5.918 l -1.575,-1.582 v -15.157 h 4.356 l 2.062,2.11"
         style="fill:#0b335e;fill-opacity:1;fill-rule:nonzero;stroke:none"
         id="path52" />
      <path
         d="m 245.078,312.637 v -3.582 h -10.773 l 1.574,1.57 v 15.059 l -1.574,1.582 h 5.929 l -1.582,-1.582 v -15.157 h 4.356 l 2.07,2.11"
         style="fill:#0b335e;fill-opacity:1;fill-rule:nonzero;stroke:none"
         id="path54" />
      <path
         d="m 257.469,309.055 h -11.414 l 1.574,1.57 v 15.059 l -1.574,1.582 h 11.414 v -3.582 l -2.059,2.097 h -5 v -6.23 h 3.574 l 1.582,1.562 v -4.629 l -1.582,1.582 h -3.574 v -7.539 h 5 l 2.059,2.11 v -3.582"
         style="fill:#0b335e;fill-opacity:1;fill-rule:nonzero;stroke:none"
         id="path56" />
      <path
         d="m 209.91,288.203 v -3.586 h -10.769 l 1.574,1.574 v 15.059 l -1.574,1.582 h 5.925 l -1.57,-1.582 v -15.145 h 4.356 l 2.058,2.098"
         style="fill:#0b335e;fill-opacity:1;fill-rule:nonzero;stroke:none"
         id="path58" />
      <path
         d="m 222.313,284.617 h -11.415 l 1.571,1.574 v 15.059 l -1.571,1.582 h 11.415 v -3.586 l -2.071,2.102 h -5 v -6.231 h 3.586 l 1.57,1.574 v -4.628 l -1.57,1.57 h -3.586 v -7.528 h 5 l 2.071,2.098 v -3.586"
         style="fill:#0b335e;fill-opacity:1;fill-rule:nonzero;stroke:none"
         id="path60" />
      <path
         d="m 233.242,294.473 h 5.93 l -1.574,-1.582 v -7.188 c -1.231,-0.683 -1.883,-1.328 -5.344,-1.328 -4.93,0 -9,4.285 -9,9.355 0,5.059 4.07,9.344 9,9.344 2.101,0 3.461,-0.457 4.57,-1.043 v -3.797 l -2.5,2.5 c -0.586,0.614 -1.199,0.868 -2.07,0.868 -3.484,0 -5.555,-4.082 -5.555,-7.872 0,-3.769 2.071,-7.871 5.555,-7.871 1.641,0 2.316,0.704 2.57,0.887 v 6.145 l -1.582,1.582"
         style="fill:#0b335e;fill-opacity:1;fill-rule:nonzero;stroke:none"
         id="path62" />
      <path
         d="m 251.094,284.617 h -11.418 l 1.574,1.574 v 15.059 l -1.574,1.582 h 11.418 v -3.586 l -2.071,2.102 h -5 v -6.231 h 3.582 l 1.575,1.574 v -4.628 l -1.575,1.57 h -3.582 v -7.528 h 5 l 2.071,2.098 v -3.586"
         style="fill:#0b335e;fill-opacity:1;fill-rule:nonzero;stroke:none"
         id="path64" />
      <path
         d="m 262.977,336.895 v -65.547 c -5.028,0.273 -8.907,1.679 -12.645,3.047 -3.965,1.445 -7.715,2.812 -12.5,2.812 -3.848,0 -7.91,-0.898 -12.402,-2.754 -4.485,1.856 -8.547,2.754 -12.395,2.754 -4.793,0 -8.543,-1.367 -12.508,-2.812 -3.742,-1.368 -7.605,-2.774 -12.648,-3.047 v 65.547 l -5.781,-5.782 v -59.765 -0.528 -5.586 -0.527 l 6.105,0.332 c 5.945,0.324 10.391,1.953 14.305,3.391 l 0.039,0.008 c 3.762,1.378 6.738,2.46 10.488,2.46 3.496,-0.175 6.145,-0.664 8.117,-2.011 2,-1.367 4.278,-1.231 4.278,-1.231 0,0 2.285,-0.136 4.285,1.231 1.973,1.347 4.621,1.836 8.117,2.011 3.75,0 6.719,-1.082 10.488,-2.46 l 0.039,-0.008 c 3.914,-1.438 8.36,-3.067 14.305,-3.391 l 6.106,-0.332 v 0.527 5.586 0.528 59.765 l -5.793,5.782"
         style="fill:#0b335e;fill-opacity:1;fill-rule:nonzero;stroke:none"
         id="path66" />
      <path
         d="m 269.59,288.184 c 2.156,0 3.926,-1.766 3.926,-3.946 0,-2.168 -1.77,-3.925 -3.926,-3.925 h -0.879 v 7.871 h 0.879"
         style="fill:#0b335e;fill-opacity:1;fill-rule:nonzero;stroke:none"
         id="path68" />
      <path
         d="m 269.59,319.336 c 2.156,0 3.926,-1.746 3.926,-3.914 0,-2.18 -1.77,-3.945 -3.926,-3.945 h -0.879 v 7.859 h 0.879"
         style="fill:#0b335e;fill-opacity:1;fill-rule:nonzero;stroke:none"
         id="path70" />
      <path
         d="m 181.277,288.184 c -2.156,0 -3.933,-1.766 -3.933,-3.946 0,-2.168 1.777,-3.925 3.933,-3.925 h 0.871 v 7.871 h -0.871"
         style="fill:#0b335e;fill-opacity:1;fill-rule:nonzero;stroke:none"
         id="path72" />
      <path
         d="m 181.277,319.336 c -2.156,0 -3.933,-1.746 -3.933,-3.914 0,-2.18 1.777,-3.945 3.933,-3.945 h 0.871 v 7.859 h -0.871"
         style="fill:#0b335e;fill-opacity:1;fill-rule:nonzero;stroke:none"
         id="path74" />
      <path
         d="m 517.672,182.559 c -1.777,0 -4.512,0.117 -8.484,1.359 -4.098,1.238 -5.489,5.215 -6.7,13.824 l -12.425,84.426 c -0.43,2.871 -1.211,4.238 -2.461,4.238 -1.231,0 -2.051,-1.074 -3.008,-3.281 l -37.176,-78.035 -37.277,77.078 c -1.782,3.555 -2.602,4.238 -3.696,4.238 -1.093,0 -1.914,-1.23 -2.324,-3.554 l -13.519,-89.09 c -0.684,-4.629 -1.797,-9.973 -5.606,-10.801 -2.07,-0.402 -3.008,-0.402 -4.101,-0.402 -1.352,0 -2.196,-0.274 -2.196,-0.957 0,-1.231 1.102,-1.504 2.449,-1.504 4.375,0 10.957,0.41 13.536,0.41 2.484,0 8.617,-0.41 14.359,-0.41 2.031,0 3.266,0.273 3.266,1.504 0,0.683 -0.938,0.957 -2.032,0.957 -1.39,0 -3.285,0.117 -5.746,0.683 -2.324,0.547 -4.101,1.778 -4.101,4.375 0,2.18 0.136,3.957 0.429,6.438 l 7.09,54.363 h 0.528 c 4.804,-10.234 12.992,-27.461 14.222,-30.332 1.641,-3.809 12.446,-24.746 15.727,-31.008 2.168,-4.117 3.539,-6.863 4.765,-6.863 1.211,0 1.914,1.262 5.063,7.687 l 29.773,62.02 h 0.547 l 8.207,-60.125 c 0.547,-3.809 0.137,-5.598 -0.683,-5.879 -0.938,-0.402 -1.504,-0.813 -1.504,-1.496 0,-0.82 0.82,-1.223 3.965,-1.524 5.468,-0.39 24.32,-0.8 27.746,-0.8 1.914,0 3.535,0.41 3.535,1.504 0,0.82 -0.945,0.957 -2.168,0.957"
         style="fill:#0b335e;fill-opacity:1;fill-rule:nonzero;stroke:none"
         id="path76" />
      <path
         d="m 589.285,200.879 c -0.957,0 -1.211,-0.555 -1.508,-2.039 -0.937,-5.606 -2.597,-8.496 -6.132,-10.129 -3.555,-1.633 -9.301,-1.633 -12.856,-1.633 -13.926,0 -16.117,2.055 -16.41,11.449 -0.117,3.985 0,16.551 0,21.2 v 10.781 c 0,0.84 0.156,1.387 0.844,1.387 3.277,0 16.797,-0.137 19.398,-0.411 5.059,-0.566 6.953,-2.597 7.637,-5.332 0.41,-1.777 0.41,-3.554 0.566,-4.922 0,-0.683 0.254,-1.23 1.231,-1.23 1.211,0 1.211,1.484 1.211,2.598 0,0.957 0.293,6.406 0.566,9.16 0.391,6.953 1.094,9.16 1.094,9.961 0,0.82 -0.41,1.094 -0.957,1.094 -0.703,0 -1.231,-0.684 -2.207,-1.778 -1.211,-1.367 -3.262,-1.777 -6.543,-2.031 -3.168,-0.293 -18.856,-0.293 -21.86,-0.293 -0.824,0 -0.98,0.547 -0.98,1.504 v 34.582 c 0,0.945 0.293,1.375 0.98,1.375 2.711,0 17.075,-0.274 19.379,-0.547 6.836,-0.828 8.223,-2.461 9.18,-4.93 0.664,-1.613 0.82,-3.957 0.82,-4.922 0,-1.21 0.254,-1.914 1.231,-1.914 0.957,0 1.211,0.821 1.367,1.504 0.254,1.641 0.547,7.664 0.664,9.032 0.418,6.269 1.094,7.91 1.094,8.867 0,0.683 -0.117,1.23 -0.817,1.23 -0.687,0 -1.507,-0.39 -2.191,-0.547 -1.094,-0.273 -3.262,-0.547 -5.859,-0.82 -2.598,-0.137 -29.793,-0.137 -34.149,-0.137 -3.828,0 -12.449,0.41 -19.695,0.41 -2.047,0 -3.012,-0.273 -3.012,-1.23 0,-0.957 0.824,-1.23 2.324,-1.23 1.918,0 4.227,-0.137 5.336,-0.411 4.516,-0.957 5.606,-3.156 5.86,-7.785 0.293,-4.375 0.293,-8.179 0.293,-28.972 v -24.043 c 0,-12.559 0,-23.368 -0.704,-29.09 -0.519,-3.977 -1.21,-6.985 -3.945,-7.532 -1.23,-0.273 -2.867,-0.546 -4.922,-0.546 -1.621,0 -2.187,-0.411 -2.187,-1.082 0,-0.969 0.957,-1.379 2.734,-1.379 5.469,0 14.09,0.41 17.235,0.41 8.046,0 17.21,-0.82 37.839,-0.82 5.184,0 6.407,0 7.368,3.554 0.683,2.746 1.777,12.024 1.777,15.176 0,1.367 0,2.461 -1.094,2.461"
         style="fill:#0b335e;fill-opacity:1;fill-rule:nonzero;stroke:none"
         id="path78" />
      <path
         d="m 750.922,231.484 c -2.442,-1.796 -4.238,-2.324 -9.692,-2.324 -3.417,0 -7.519,0.41 -10.371,1.348 -0.957,0.41 -1.25,0.976 -1.25,2.48 v 41.543 c 0,1.094 0.293,1.641 1.25,1.887 1.348,0.418 3.809,0.555 7.207,0.555 8.086,0 20.903,-5.586 20.903,-24.981 0,-11.23 -3.965,-17.519 -8.047,-20.508 z m -103.149,0 c -2.464,-1.796 -4.222,-2.324 -9.71,-2.324 -3.418,0 -7.52,0.41 -10.36,1.348 -0.957,0.41 -1.25,0.976 -1.25,2.48 v 41.543 c 0,1.094 0.293,1.641 1.25,1.887 1.356,0.418 3.817,0.555 7.235,0.555 8.046,0 20.902,-5.586 20.902,-24.981 0,-11.23 -3.985,-17.519 -8.067,-20.508 z m 200.024,-48.925 c -2.051,0 -5.059,0.273 -6.953,0.546 -4.121,0.547 -5.059,3.008 -5.469,6.692 -0.547,5.879 -0.547,16.668 -0.547,29.93 v 24.043 c 0,20.793 0,24.597 0.274,28.972 0.273,4.817 1.367,7.121 5.058,7.785 1.621,0.274 2.735,0.411 4.082,0.411 1.367,0 2.188,0.273 2.188,1.367 0,0.82 -1.094,1.093 -2.852,1.093 -5.195,0 -13.262,-0.41 -16.703,-0.41 -3.945,0 -12.539,0.41 -17.738,0.41 -2.188,0 -3.262,-0.273 -3.262,-1.093 0,-1.094 0.82,-1.367 2.168,-1.367 1.66,0 3.418,-0.137 4.902,-0.547 3.008,-0.684 4.399,-3.02 4.672,-7.649 0.254,-4.375 0.254,-8.179 0.254,-28.972 v -24.043 c 0,-13.262 0,-24.051 -0.664,-29.778 -0.43,-3.961 -1.254,-6.297 -3.969,-6.844 -1.226,-0.273 -2.867,-0.546 -4.922,-0.546 -0.355,0 -0.64,-0.02 -0.898,-0.059 -0.52,0.039 -1.039,0.07 -1.559,0.059 -1.093,0 -2.324,0.117 -3.828,0.402 -2.051,0.398 -7.66,1.375 -15.316,9.316 -8.047,8.465 -17.488,20.614 -29.641,35.946 13.793,11.191 18.031,20.468 18.031,30.586 0,9.171 -5.449,16.125 -9.296,18.75 -7.387,5.019 -16.528,5.839 -25.145,5.839 -4.219,0 -14.594,-0.41 -19.242,-0.41 -2.871,0 -11.492,0.41 -18.719,0.41 -2.07,0 -3.008,-0.273 -3.008,-1.23 0,-0.957 0.821,-1.23 2.325,-1.23 1.914,0 4.218,-0.137 5.316,-0.411 4.508,-0.957 5.609,-3.156 5.879,-7.785 0.277,-4.375 0.277,-8.179 0.277,-28.972 v -24.043 c 0,-12.559 0,-23.368 -0.691,-29.09 -0.547,-3.977 -1.231,-6.985 -3.961,-7.532 -1.235,-0.273 -2.875,-0.546 -4.906,-0.546 -0.227,0 -0.383,-0.02 -0.575,-0.039 -0.265,0.019 -0.492,0.039 -0.648,0.039 -1.094,0 -2.344,0.117 -3.828,0.402 -2.051,0.398 -7.664,1.375 -15.297,9.316 -8.094,8.465 -17.488,20.614 -29.66,35.946 13.793,11.191 18.031,20.468 18.031,30.586 0,9.171 -5.449,16.125 -9.281,18.75 -7.383,5.019 -16.528,5.839 -25.141,5.839 -4.238,0 -14.637,-0.41 -19.265,-0.41 -2.891,0 -11.469,0.41 -18.715,0.41 -2.071,0 -3.008,-0.273 -3.008,-1.23 0,-0.957 0.797,-1.23 2.324,-1.23 1.914,0 4.238,-0.137 5.332,-0.411 4.496,-0.957 5.606,-3.156 5.86,-7.785 0.277,-4.375 0.277,-8.179 0.277,-28.972 v -24.043 c 0,-12.559 0,-23.368 -0.684,-29.09 -0.531,-3.977 -1.234,-6.985 -3.949,-7.532 -1.25,-0.273 -2.891,-0.546 -4.922,-0.546 -1.66,0 -2.187,-0.411 -2.187,-1.082 0,-0.969 0.957,-1.379 2.715,-1.379 5.488,0 14.066,0.41 16.664,0.41 2.07,0 12.175,-0.41 20.086,-0.41 1.796,0 2.753,0.41 2.753,1.379 0,0.671 -0.566,1.082 -1.64,1.082 -1.641,0 -4.649,0.273 -6.699,0.546 -4.09,0.547 -4.922,3.555 -5.34,7.532 -0.684,5.722 -0.684,16.531 -0.684,29.226 v 1.914 c 0,0.821 0.43,1.094 1.102,1.094 l 11.894,-0.273 c 0.957,0 1.758,-0.137 2.442,-0.957 1.777,-2.051 8.07,-11.348 13.539,-18.848 7.66,-10.516 12.855,-16.973 18.715,-20.117 3.554,-1.895 6.976,-2.578 14.613,-2.578 h 12.996 c 0.492,0 1.262,0.011 2.09,0.05 0.203,-0.011 0.383,-0.05 0.621,-0.05 5.465,0 14.086,0.41 16.683,0.41 2.032,0 12.153,-0.41 20.082,-0.41 1.758,0 2.735,0.41 2.735,1.379 0,0.671 -0.547,1.082 -1.66,1.082 -1.641,0 -4.649,0.273 -6.7,0.546 -4.082,0.547 -4.902,3.555 -5.316,7.532 -0.68,5.722 -0.68,16.531 -0.68,29.226 v 1.914 c 0,0.821 0.411,1.094 1.094,1.094 l 11.895,-0.273 c 0.957,0 1.757,-0.137 2.461,-0.957 1.757,-2.051 8.05,-11.348 13.519,-18.848 7.66,-10.516 12.84,-16.973 18.719,-20.117 3.558,-1.895 6.976,-2.578 14.613,-2.578 h 12.992 c 0.664,0 1.981,0 3.305,0.05 0.215,-0.011 0.406,-0.05 0.656,-0.05 5.473,0 14.067,0.41 17.211,0.41 3.696,0 12.309,-0.41 21.332,-0.41 1.504,0 2.602,0.41 2.602,1.379 0,0.671 -0.727,1.082 -2.211,1.082"
         style="fill:#0b335e;fill-opacity:1;fill-rule:nonzero;stroke:none"
         id="path80" />
      <path
         d="m 1059.89,222.598 h -25.14 c -0.53,0 -0.69,0.41 -0.53,0.957 l 12.56,33.625 c 0.14,0.547 0.41,1.23 0.82,1.23 0.41,0 0.55,-0.683 0.69,-1.23 l 12.29,-33.762 c 0.13,-0.41 0,-0.82 -0.69,-0.82 z m 46.17,-40.039 c -1.63,0 -3.68,0.117 -5.7,0.546 -2.9,0.684 -6.85,2.61 -12.04,14.891 -8.75,20.774 -30.6,76.535 -33.9,84.035 -1.36,3.145 -2.19,4.375 -3.42,4.375 -1.37,0 -2.17,-1.504 -3.81,-5.468 l -34.3,-85.809 c -2.72,-6.816 -5.34,-11.477 -11.65,-12.297 -1.07,-0.156 -2.986,-0.273 -4.224,-0.273 -0.164,0 -0.235,-0.059 -0.371,-0.067 -0.977,0.047 -1.774,0.067 -2.094,0.067 -1.797,0 -4.512,0.117 -8.477,1.359 -4.125,1.238 -5.492,5.215 -6.719,13.824 l -12.406,84.426 c -0.41,2.871 -1.23,4.238 -2.469,4.238 -1.226,0 -2.042,-1.074 -3.019,-3.281 L 924.297,205.09 887.02,282.168 c -1.821,3.555 -2.637,4.238 -3.711,4.238 -1.094,0 -1.899,-1.23 -2.325,-3.554 l -13.519,-89.09 c -0.688,-4.629 -1.781,-9.973 -5.61,-10.801 -2.05,-0.402 -2.988,-0.402 -4.082,-0.402 -1.386,0 -2.207,-0.274 -2.207,-0.957 0,-1.231 1.094,-1.504 2.461,-1.504 4.375,0 10.938,0.41 13.539,0.41 2.465,0 8.594,-0.41 14.321,-0.41 2.051,0 3.301,0.273 3.301,1.504 0,0.683 -0.958,0.957 -2.051,0.957 -1.367,0 -3.282,0.117 -5.727,0.683 -2.344,0.547 -4.121,1.778 -4.121,4.375 0,2.18 0.137,3.957 0.414,6.438 l 7.106,54.363 h 0.55 c 4.77,-10.234 12.977,-27.461 14.219,-30.332 1.649,-3.809 12.43,-24.746 15.711,-31.008 2.172,-4.117 3.555,-6.863 4.77,-6.863 1.226,0 1.933,1.262 5.058,7.687 l 29.793,62.02 h 0.524 l 8.207,-60.125 c 0.547,-3.809 0.164,-5.598 -0.68,-5.879 -0.941,-0.402 -1.5,-0.813 -1.5,-1.496 0,-0.82 0.836,-1.223 3.961,-1.524 5.473,-0.39 24.324,-0.8 27.742,-0.8 0.629,0 1.996,0.039 3.52,0.105 0.363,-0.066 0.781,-0.105 1.312,-0.105 7.094,0 14.614,0.41 16.114,0.41 4.24,0 10.13,-0.41 14.48,-0.41 1.53,0 2.35,0.273 2.35,1.379 0,0.808 -0.42,1.082 -2.05,1.082 h -2.07 c -4.23,0 -5.46,1.777 -5.46,4.218 0,1.653 0.67,4.934 2.06,8.352 l 7.36,19.539 c 0.27,0.84 0.57,1.094 1.25,1.094 h 30.44 c 0.68,0 1.09,-0.254 1.39,-0.938 l 10.92,-29.004 c 0.68,-1.621 -0.3,-2.859 -1.24,-3.144 -1.38,-0.117 -1.91,-0.391 -1.91,-1.199 0,-0.969 1.64,-0.969 4.11,-1.106 10.92,-0.273 20.9,-0.273 25.82,-0.273 5.07,0 6.27,0.273 6.27,1.379 0,0.945 -0.68,1.082 -1.77,1.082"
         style="fill:#0b335e;fill-opacity:1;fill-rule:nonzero;stroke:none"
         id="path82" />
      <path
         d="m 1194.34,205.52 c -1.11,0 -1.37,-0.54 -1.77,-2.727 -0.57,-2.469 -2.33,-6.434 -4.65,-9.031 -5.47,-6.289 -12.84,-7.649 -25,-7.649 -18.33,0 -43.05,16.125 -43.05,48.653 0,13.242 2.6,26.222 12.58,35.382 6.02,5.477 13.79,8.465 25.67,8.465 12.58,0 23.23,-3.679 27.74,-8.465 3.42,-3.535 5.2,-8.324 5.34,-12.558 0,-1.914 0.27,-3.02 1.37,-3.02 1.23,0 1.48,1.106 1.63,3.157 0.26,2.734 0.14,10.253 0.41,14.722 0.26,4.809 0.67,6.438 0.67,7.531 0,0.821 -0.53,1.504 -2.05,1.661 -4.08,0.39 -8.46,1.621 -13.65,2.304 -6.27,0.821 -11.36,1.387 -19.8,1.387 -20.38,0 -33.35,-5.469 -43.19,-14.492 -13.11,-12.031 -15.99,-28.184 -15.99,-37.442 0,-13.261 3.56,-28.554 16.94,-40.3 12.43,-10.813 28.14,-14.914 46.9,-14.914 8.72,0 19.09,0.957 24.57,3.156 2.32,0.945 2.87,1.621 3.56,3.965 1.36,4.644 2.98,16.519 2.98,18.152 0,1.133 -0.27,2.063 -1.21,2.063"
         style="fill:#0b335e;fill-opacity:1;fill-rule:nonzero;stroke:none"
         id="path84" />
      <path
         d="m 1314.37,182.559 c -1.65,0 -4.36,0.402 -8.48,2.05 -7.37,2.864 -13.5,9.004 -19.51,14.739 -5.34,5.078 -32.13,33.914 -37.05,40.32 4.65,4.922 25.28,25.422 29.52,29.512 5.88,5.754 10.53,8.633 14.77,10.254 2.58,0.957 5.99,1.504 7.92,1.504 1.38,0 2.06,0.273 2.06,1.23 0,0.957 -0.97,1.23 -2.32,1.23 -4.26,0 -11.78,-0.41 -16.03,-0.41 -3.67,0 -11.18,0.41 -14.04,0.41 -1.53,0 -2.21,-0.273 -2.21,-1.23 0,-0.82 0.55,-1.094 1.78,-1.367 1.35,-0.274 1.91,-1.231 1.91,-2.715 0,-2.344 -3.01,-5.731 -6.84,-10.254 -3.94,-4.637 -23.89,-25.019 -28.54,-30.078 h -0.68 v 6.016 c 0,20.793 0,24.597 0.27,28.972 0.28,4.817 1.37,7.121 5.06,7.785 1.67,0.274 2.45,0.411 3.81,0.411 1.09,0 1.91,0.273 1.91,1.23 0,0.957 -0.95,1.23 -2.85,1.23 -4.63,0 -13.24,-0.41 -16.54,-0.41 -3.27,0 -11.88,0.41 -19.13,0.41 -2.05,0 -3,-0.273 -3,-1.23 0,-0.957 0.81,-1.23 2.32,-1.23 1.91,0 4.24,-0.137 5.33,-0.411 4.52,-0.957 5.61,-3.156 5.86,-7.785 0.3,-4.375 0.3,-8.179 0.3,-28.972 v -24.043 c 0,-12.559 0,-23.368 -0.69,-29.09 -0.54,-3.977 -1.23,-6.985 -3.96,-7.532 -1.24,-0.273 -2.88,-0.546 -4.93,-0.546 -1.64,0 -2.19,-0.411 -2.19,-1.082 0,-0.969 0.96,-1.379 2.74,-1.379 5.47,0 14.08,0.41 17.21,0.41 3.44,0 12.05,-0.41 19.68,-0.41 1.5,0 2.59,0.41 2.59,1.379 0,0.671 -0.67,1.082 -1.76,1.082 -1.8,0 -4.78,0.273 -6.7,0.546 -3.42,0.547 -4.65,3.555 -4.92,7.375 -0.41,5.879 -0.41,16.688 -0.41,29.247 v 12.441 h 0.68 l 1.51,-2.051 c 2.87,-3.965 29.79,-35.539 35.79,-40.847 5.88,-5.207 9.55,-8.204 16.96,-8.899 2.85,-0.273 5.33,-0.273 9.43,-0.273 h 11.87 c 2.61,0 3.27,0.41 3.27,1.379 0,0.808 -0.81,1.082 -1.77,1.082"
         style="fill:#0b335e;fill-opacity:1;fill-rule:nonzero;stroke:none"
         id="path86" />
      <path
         d="m 1448.55,205.52 c -1.1,0 -1.37,-0.54 -1.78,-2.727 -0.55,-2.469 -2.31,-6.434 -4.65,-9.031 -5.45,-6.289 -12.81,-7.649 -24.99,-7.649 -18.3,0 -43.02,16.125 -43.02,48.653 0,13.242 2.58,26.222 12.55,35.382 6.01,5.477 13.79,8.465 25.69,8.465 12.56,0 23.23,-3.679 27.74,-8.465 3.4,-3.535 5.17,-8.324 5.32,-12.558 0,-1.914 0.27,-3.02 1.36,-3.02 1.23,0 1.5,1.106 1.64,3.157 0.27,2.734 0.14,10.253 0.41,14.722 0.28,4.809 0.69,6.438 0.69,7.531 0,0.821 -0.53,1.504 -2.06,1.661 -4.08,0.39 -8.44,1.621 -13.67,2.304 -6.27,0.821 -11.32,1.387 -19.79,1.387 -20.4,0 -33.33,-5.469 -43.2,-14.492 -13.09,-12.031 -15.96,-28.184 -15.96,-37.442 0,-13.261 3.55,-28.554 16.94,-40.3 12.42,-10.813 28.13,-14.914 46.85,-14.914 8.75,0 19.15,0.957 24.6,3.156 2.33,0.945 2.87,1.621 3.55,3.965 1.37,4.644 3.01,16.519 3.01,18.152 0,1.133 -0.27,2.063 -1.23,2.063"
         style="fill:#0b335e;fill-opacity:1;fill-rule:nonzero;stroke:none"
         id="path88" />
      <path
         d="m 1520,185.02 c -26.24,0 -41.94,22.539 -41.94,50.976 0,34.035 17.9,42.754 33.63,42.754 22.38,0 40,-18.973 40,-49.59 0,-39.48 -22.13,-44.14 -31.69,-44.14 z m -4.37,100.312 c -40.99,0 -56.42,-30.215 -56.42,-53.574 0,-24.199 15.87,-53.574 55.06,-53.574 34.71,0 56.57,24.746 56.57,56.054 0,31.258 -21.16,51.094 -55.21,51.094"
         style="fill:#0b335e;fill-opacity:1;fill-rule:nonzero;stroke:none"
         id="path90" />
      <path
         d="m 1645.06,201.418 c -1.12,0 -1.37,-0.813 -1.51,-2.07 -0.29,-2.578 -1.93,-6.407 -3.57,-8.196 -3.42,-3.679 -8.73,-3.816 -15.99,-3.816 -10.66,0 -14.19,0.977 -16.52,3.008 -2.9,2.48 -2.9,11.894 -2.9,29.383 v 24.043 c 0,20.793 0,24.597 0.3,28.972 0.28,4.817 1.36,7.121 5.06,7.785 1.64,0.274 3.82,0.411 5.31,0.411 1.64,0 2.47,0.273 2.47,1.23 0,0.957 -0.96,1.23 -2.86,1.23 -5.33,0 -15.31,-0.41 -18.6,-0.41 -3.69,0 -12.29,0.41 -18.72,0.41 -2.05,0 -3,-0.273 -3,-1.23 0,-0.957 0.82,-1.23 2.33,-1.23 1.77,0 3.43,-0.137 4.51,-0.411 4.51,-0.957 5.59,-3.156 5.86,-7.785 0.29,-4.375 0.29,-8.179 0.29,-28.972 v -24.043 c 0,-12.559 0,-23.368 -0.7,-29.09 -0.53,-3.977 -1.21,-6.985 -3.95,-7.532 -1.23,-0.273 -2.87,-0.546 -4.92,-0.546 -1.65,0 -2.21,-0.411 -2.21,-1.082 0,-0.969 0.98,-1.379 2.76,-1.379 5.46,0 14.06,0.41 17.21,0.41 11.07,0 20.08,-0.82 39.75,-0.82 7.11,0 7.8,0.683 8.62,3.671 1.11,3.977 2.05,14.211 2.05,15.735 0,1.648 -0.14,2.324 -1.07,2.324"
         style="fill:#0b335e;fill-opacity:1;fill-rule:nonzero;stroke:none"
         id="path92" />
      <path
         d="m 1722.09,201.418 c -1.09,0 -1.35,-0.813 -1.5,-2.07 -0.28,-2.578 -1.92,-6.407 -3.56,-8.196 -3.42,-3.679 -8.73,-3.816 -15.97,-3.816 -10.68,0 -14.2,0.977 -16.54,3.008 -2.88,2.48 -2.88,11.894 -2.88,29.383 v 24.043 c 0,20.793 0,24.597 0.28,28.972 0.27,4.817 1.37,7.121 5.08,7.785 1.62,0.274 3.81,0.411 5.31,0.411 1.65,0 2.47,0.273 2.47,1.23 0,0.957 -0.98,1.23 -2.9,1.23 -5.31,0 -15.29,-0.41 -18.55,-0.41 -3.7,0 -12.31,0.41 -18.74,0.41 -2.05,0 -3.01,-0.273 -3.01,-1.23 0,-0.957 0.84,-1.23 2.32,-1.23 1.8,0 3.44,-0.137 4.54,-0.411 4.49,-0.957 5.58,-3.156 5.84,-7.785 0.29,-4.375 0.29,-8.179 0.29,-28.972 v -24.043 c 0,-12.559 0,-23.368 -0.68,-29.09 -0.53,-3.977 -1.23,-6.985 -3.94,-7.532 -1.26,-0.273 -2.9,-0.546 -4.94,-0.546 -1.63,0 -2.18,-0.411 -2.18,-1.082 0,-0.969 0.94,-1.379 2.72,-1.379 5.47,0 14.08,0.41 17.2,0.41 11.08,0 20.09,-0.82 39.78,-0.82 7.1,0 7.78,0.683 8.6,3.671 1.08,3.977 2.05,14.211 2.05,15.735 0,1.648 -0.15,2.324 -1.09,2.324"
         style="fill:#0b335e;fill-opacity:1;fill-rule:nonzero;stroke:none"
         id="path94" />
      <path
         d="m 1798.29,200.879 c -0.92,0 -1.22,-0.555 -1.48,-2.039 -0.94,-5.606 -2.61,-8.496 -6.17,-10.129 -3.52,-1.633 -9.27,-1.633 -12.83,-1.633 -13.93,0 -16.12,2.055 -16.39,11.449 -0.12,3.985 0,16.551 0,21.2 v 10.781 c 0,0.84 0.14,1.387 0.84,1.387 3.24,0 16.76,-0.137 19.36,-0.411 5.06,-0.566 6.99,-2.597 7.66,-5.332 0.44,-1.777 0.44,-3.554 0.57,-4.922 0,-0.683 0.25,-1.23 1.21,-1.23 1.25,0 1.25,1.484 1.25,2.598 0,0.957 0.26,6.406 0.55,9.16 0.39,6.953 1.07,9.16 1.07,9.961 0,0.82 -0.41,1.094 -0.96,1.094 -0.66,0 -1.23,-0.684 -2.18,-1.778 -1.24,-1.367 -3.27,-1.777 -6.57,-2.031 -3.12,-0.293 -18.83,-0.293 -21.82,-0.293 -0.84,0 -0.98,0.547 -0.98,1.504 v 34.582 c 0,0.945 0.27,1.375 0.98,1.375 2.74,0 17.06,-0.274 19.36,-0.547 6.85,-0.828 8.23,-2.461 9.18,-4.93 0.67,-1.613 0.8,-3.957 0.8,-4.922 0,-1.21 0.28,-1.914 1.23,-1.914 0.96,0 1.23,0.821 1.38,1.504 0.26,1.641 0.54,7.664 0.67,9.032 0.41,6.269 1.1,7.91 1.1,8.867 0,0.683 -0.13,1.23 -0.83,1.23 -0.68,0 -1.48,-0.39 -2.17,-0.547 -1.1,-0.273 -3.27,-0.547 -5.89,-0.82 -2.58,-0.137 -29.75,-0.137 -34.13,-0.137 -3.83,0 -12.44,0.41 -19.68,0.41 -2.04,0 -3.03,-0.273 -3.03,-1.23 0,-0.957 0.84,-1.23 2.33,-1.23 1.94,0 4.25,-0.137 5.34,-0.411 4.53,-0.957 5.6,-3.156 5.89,-7.785 0.26,-4.375 0.26,-8.179 0.26,-28.972 v -24.043 c 0,-12.559 0,-23.368 -0.66,-29.09 -0.57,-3.977 -1.24,-6.985 -3.99,-7.532 -1.23,-0.273 -2.87,-0.546 -4.9,-0.546 -1.65,0 -2.2,-0.411 -2.2,-1.082 0,-0.969 0.96,-1.379 2.75,-1.379 5.45,0 14.06,0.41 17.21,0.41 8.04,0 17.21,-0.82 37.82,-0.82 5.19,0 6.43,0 7.38,3.554 0.67,2.746 1.78,12.024 1.78,15.176 0,1.367 0,2.461 -1.11,2.461"
         style="fill:#0b335e;fill-opacity:1;fill-rule:nonzero;stroke:none"
         id="path96" />
      <path
         d="m 1915.25,231.348 c -4.52,0 -11.76,-0.43 -15.98,-0.43 -4.12,0 -12.72,0.43 -19.83,0.43 -1.94,0 -2.85,-0.293 -2.85,-1.368 0,-0.82 0.82,-1.093 2.02,-1.093 1.92,0 4.25,-0.137 5.34,-0.41 4.52,-0.977 5.72,-3.145 5.88,-7.774 0.12,-4.121 0.12,-9.297 0.12,-16.113 v -12.879 c 0,-2.324 -0.53,-4.094 -2.58,-5.051 -3.26,-1.504 -8.05,-1.504 -11.63,-1.504 -28.82,0 -47.55,22.012 -47.55,51.367 0,16.817 4.93,27.063 12.56,33.508 9.58,7.899 19.56,8.446 27.07,8.446 15.45,0 26.37,-6.27 30.5,-10.645 3.53,-3.84 4.21,-8.191 4.62,-11.348 0.14,-1.093 0.41,-1.777 1.39,-1.777 1.09,0 1.48,0.684 1.48,2.883 0,17.078 0.96,20.887 0.96,22.39 0,0.958 -0.27,1.504 -1.92,1.661 -3.14,0.117 -7.92,0.937 -10.78,1.484 -2.76,0.547 -14.75,2.207 -24.21,2.207 -11.48,0 -23.63,-0.957 -36.74,-8.914 -12.44,-7.492 -23.78,-22.797 -23.78,-44.66 0,-37.703 29.68,-53.574 63.12,-53.574 10.67,0 24.07,1.504 32.96,6.152 1.62,0.969 1.76,1.238 1.76,4.934 v 15.027 c 0,6.816 0,12.285 0.16,16.406 0.14,4.766 1.48,7.09 5.17,7.774 1.65,0.273 2.58,0.41 3.67,0.41 0.98,0 1.8,0.273 1.8,1.093 0,1.075 -0.97,1.368 -2.73,1.368"
         style="fill:#0b335e;fill-opacity:1;fill-rule:nonzero;stroke:none"
         id="path98" />
      <path
         d="m 1988.47,200.879 c -0.96,0 -1.23,-0.555 -1.48,-2.039 -0.98,-5.606 -2.6,-8.496 -6.17,-10.129 -3.54,-1.633 -9.31,-1.633 -12.82,-1.633 -13.97,0 -16.12,2.055 -16.44,11.449 -0.1,3.985 0,16.551 0,21.2 v 10.781 c 0,0.84 0.18,1.387 0.84,1.387 3.29,0 16.83,-0.137 19.43,-0.411 5.03,-0.566 6.95,-2.597 7.63,-5.332 0.4,-1.777 0.4,-3.554 0.55,-4.922 0,-0.683 0.26,-1.23 1.21,-1.23 1.23,0 1.23,1.484 1.23,2.598 0,0.957 0.27,6.406 0.57,9.16 0.41,6.953 1.1,9.16 1.1,9.961 0,0.82 -0.41,1.094 -0.99,1.094 -0.68,0 -1.2,-0.684 -2.18,-1.778 -1.23,-1.367 -3.26,-1.777 -6.54,-2.031 -3.15,-0.293 -18.86,-0.293 -21.87,-0.293 -0.8,0 -0.98,0.547 -0.98,1.504 v 34.582 c 0,0.945 0.32,1.375 0.98,1.375 2.74,0 17.08,-0.274 19.4,-0.547 6.84,-0.828 8.19,-2.461 9.16,-4.93 0.69,-1.613 0.83,-3.957 0.83,-4.922 0,-1.21 0.27,-1.914 1.2,-1.914 0.99,0 1.26,0.821 1.39,1.504 0.28,1.641 0.53,7.664 0.67,9.032 0.43,6.269 1.09,7.91 1.09,8.867 0,0.683 -0.14,1.23 -0.79,1.23 -0.69,0 -1.53,-0.39 -2.2,-0.547 -1.09,-0.273 -3.28,-0.547 -5.88,-0.82 -2.62,-0.137 -29.79,-0.137 -34.15,-0.137 -3.83,0 -12.46,0.41 -19.7,0.41 -2.05,0 -2.99,-0.273 -2.99,-1.23 0,-0.957 0.8,-1.23 2.3,-1.23 1.94,0 4.27,-0.137 5.36,-0.411 4.49,-0.957 5.59,-3.156 5.85,-7.785 0.29,-4.375 0.29,-8.179 0.29,-28.972 v -24.043 c 0,-12.559 0,-23.368 -0.69,-29.09 -0.53,-3.977 -1.23,-6.985 -3.94,-7.532 -1.25,-0.273 -2.89,-0.546 -4.93,-0.546 -1.64,0 -2.21,-0.411 -2.21,-1.082 0,-0.969 0.96,-1.379 2.74,-1.379 5.46,0 14.09,0.41 17.21,0.41 8.1,0 17.25,-0.82 37.87,-0.82 5.2,0 6.41,0 7.36,3.554 0.69,2.746 1.79,12.024 1.79,15.176 0,1.367 0,2.461 -1.1,2.461"
         style="fill:#0b335e;fill-opacity:1;fill-rule:nonzero;stroke:none"
         id="path100" />
    </g>
  </g>
</svg>
